<svg xmlns="http://www.w3.org/2000/svg" viewBox="0 0 100.0 100.0" width="100.0" height="100.0"><defs><linearGradient id="lg1368_0" gradientUnits="userSpaceOnUse" x1="0" y1="0" x2="64" y2="-100"><stop offset="0" stop-color="#1237B3"/><stop offset="1" stop-color="#5CC4F8"/></linearGradient><linearGradient id="lg1368_1" gradientUnits="userSpaceOnUse" x1="-18" y1="-28" x2="82" y2="-49"><stop offset="0" stop-color="#1237B3"/><stop offset="1" stop-color="#5CC4F8"/></linearGradient><mask id="lg1368_m2" maskUnits="userSpaceOnUse" x="-300" y="-300" width="900" height="900"><rect x="-300" y="-300" width="900" height="900" fill="#fff"/><g fill="#000" stroke="#000" stroke-width="7" stroke-linejoin="round"><rect x="-21" y="-46" width="6" height="44" rx="3"/><circle cx="-18" cy="-49" r="5"/><rect x="-27" y="-5" width="18" height="5" rx="2.5"/><rect x="79" y="-46" width="6" height="44" rx="3"/><circle cx="82" cy="-49" r="5"/><rect x="73" y="-5" width="18" height="5" rx="2.5"/><path d="M-18 -42Q32 -14 82 -42" fill="none" stroke="#000" stroke-width="13" stroke-linecap="round"/></g></mask></defs><rect width="100" height="100" rx="22.5" fill="#0B1B3F"/><g transform="translate(26.32 87) scale(0.74)"><g fill="#FFFFFF" mask="url(#lg1368_m2)"><circle cx="10" cy="-90" r="10"/><path d="M0 -40V-68a10 10 0 0 1 20 0V-44a4 4 0 0 1 -4 4Z"/><path d="M3 -41H11V-4H15a2 2 0 0 1 0 4H3Z"/><circle cx="32" cy="-90" r="10"/><path d="M22 -40V-68a10 10 0 0 1 20 0V-44a4 4 0 0 1 -4 4Z"/><path d="M25 -41H33V-4H37a2 2 0 0 1 0 4H25Z"/><circle cx="54" cy="-90" r="10"/><path d="M44 -40V-68a10 10 0 0 1 20 0V-44a4 4 0 0 1 -4 4Z"/><path d="M47 -41H55V-4H59a2 2 0 0 1 0 4H47Z"/></g><g fill="#FFFFFF"><rect x="-21" y="-46" width="6" height="44" rx="3"/><circle cx="-18" cy="-49" r="5"/><rect x="-27" y="-5" width="18" height="5" rx="2.5"/><rect x="79" y="-46" width="6" height="44" rx="3"/><circle cx="82" cy="-49" r="5"/><rect x="73" y="-5" width="18" height="5" rx="2.5"/><path d="M-18 -42Q32 -14 82 -42" fill="none" stroke="#FFFFFF" stroke-width="6" stroke-linecap="round"/></g></g></svg>